<svg width="43" height="46" viewBox="0 0 43 46" fill="none" xmlns="http://www.w3.org/2000/svg">
    <path d="M40.88 22.1L22.5 40.48C20.2483 42.7316 17.1944 43.9966 14.01 43.9966C10.8256 43.9966 7.77169 42.7316 5.52 40.48C3.26831 38.2283 2.00333 35.1743 2.00333 31.99C2.00333 28.8056 3.26831 25.7516 5.52 23.5L23.9 5.11996C25.4011 3.61884 27.4371 2.77551 29.56 2.77551C31.6829 2.77551 33.7189 3.61884 35.22 5.11996C36.7211 6.62109 37.5644 8.65705 37.5644 10.78C37.5644 12.9029 36.7211 14.9388 35.22 16.44L16.82 34.82C16.0694 35.5705 15.0515 35.9922 13.99 35.9922C12.9285 35.9922 11.9106 35.5705 11.16 34.82C10.4094 34.0694 9.98778 33.0514 9.98778 31.99C9.98778 30.9285 10.4094 29.9105 11.16 29.16L28.14 12.2" stroke="white" stroke-width="4" stroke-linecap="round" stroke-linejoin="round"/>
</svg>
