<svg width="824" height="113" viewBox="0 0 824 113" fill="none" xmlns="http://www.w3.org/2000/svg">
    <path d="M46.9453 104H33.8438V101.258H38.7891V80.375C38.5078 81.0156 38.0625 81.7031 37.4531 82.4375C36.8438 83.1562 36.125 83.8203 35.2969 84.4297C34.4688 85.0234 33.5547 85.5234 32.5547 85.9297C31.5703 86.3359 30.5469 86.5391 29.4844 86.5391V83.2109C30.4375 83.2109 31.4609 82.9141 32.5547 82.3203C33.6484 81.7266 34.6562 80.9688 35.5781 80.0469C36.5 79.125 37.2656 78.0781 37.875 76.9062C38.4844 75.7344 38.7891 74.5703 38.7891 73.4141H42.0234V101.258H46.9453V104ZM58.125 88.7422C58.125 91.0078 58.3984 93.1328 58.9453 95.1172L73.2656 80C72.5156 78.5938 71.5859 77.5156 70.4766 76.7656C69.3828 76.0156 68.1016 75.6406 66.6328 75.6406C63.8828 75.6406 61.7734 76.8125 60.3047 79.1562C58.8516 81.4844 58.125 84.6797 58.125 88.7422ZM60.0469 97.7188C61.5938 100.469 63.7891 101.844 66.6328 101.844C69.3203 101.844 71.4062 100.68 72.8906 98.3516C74.375 96.0078 75.1172 92.8047 75.1172 88.7422C75.1172 87.6172 75.0469 86.5547 74.9062 85.5547C74.7656 84.5391 74.5703 83.5703 74.3203 82.6484L60.0469 97.7188ZM54.9141 88.7422C54.9141 86.6953 55.1328 84.7188 55.5703 82.8125C56.0078 80.9062 56.6875 79.2188 57.6094 77.75C58.5312 76.2812 59.7344 75.1094 61.2188 74.2344C62.7188 73.3438 64.5234 72.8984 66.6328 72.8984C68.7422 72.8984 70.5391 73.3438 72.0234 74.2344C73.5234 75.1094 74.7422 76.2812 75.6797 77.75C76.6172 79.2188 77.2969 80.9062 77.7188 82.8125C78.1406 84.7188 78.3516 86.6953 78.3516 88.7422C78.3516 90.7891 78.1406 92.7656 77.7188 94.6719C77.2969 96.5781 76.625 98.2578 75.7031 99.7109C74.7812 101.164 73.5703 102.336 72.0703 103.227C70.5859 104.102 68.7734 104.539 66.6328 104.539C64.4922 104.539 62.6719 104.102 61.1719 103.227C59.6875 102.336 58.4766 101.164 57.5391 99.7109C56.6172 98.2578 55.9531 96.5781 55.5469 94.6719C55.125 92.7656 54.9141 90.7891 54.9141 88.7422ZM103.734 94.1562H81.8906V91.4141H103.734V94.1562ZM125.555 104H112.453V101.258H117.398V80.375C117.117 81.0156 116.672 81.7031 116.062 82.4375C115.453 83.1562 114.734 83.8203 113.906 84.4297C113.078 85.0234 112.164 85.5234 111.164 85.9297C110.18 86.3359 109.156 86.5391 108.094 86.5391V83.2109C109.047 83.2109 110.07 82.9141 111.164 82.3203C112.258 81.7266 113.266 80.9688 114.188 80.0469C115.109 79.125 115.875 78.0781 116.484 76.9062C117.094 75.7344 117.398 74.5703 117.398 73.4141H120.633V101.258H125.555V104ZM156.281 93.7344C156.281 95.2344 156 96.6406 155.438 97.9531C154.875 99.2656 154.102 100.414 153.117 101.398C152.148 102.367 150.977 103.133 149.602 103.695C148.227 104.258 146.727 104.539 145.102 104.539C143.633 104.539 142.273 104.32 141.023 103.883C139.773 103.445 138.672 102.82 137.719 102.008C136.781 101.195 136.023 100.195 135.445 99.0078C134.867 97.8203 134.516 96.4609 134.391 94.9297L137.508 94.4375C137.602 95.5 137.852 96.4922 138.258 97.4141C138.664 98.3203 139.195 99.0938 139.852 99.7344C140.508 100.375 141.281 100.883 142.172 101.258C143.062 101.617 144.039 101.797 145.102 101.797C146.352 101.797 147.461 101.594 148.43 101.188C149.414 100.766 150.25 100.188 150.938 99.4531C151.625 98.7031 152.148 97.8438 152.508 96.875C152.883 95.8906 153.07 94.8438 153.07 93.7344C153.07 92.5781 152.883 91.5078 152.508 90.5234C152.148 89.5234 151.633 88.6641 150.961 87.9453C150.289 87.2266 149.461 86.6641 148.477 86.2578C147.508 85.8359 146.43 85.625 145.242 85.625C143.992 85.625 142.789 85.8906 141.633 86.4219C140.492 86.9375 139.5 87.6953 138.656 88.6953H135.445V73.4141H154.594V76.1562H138.656V85.7188C139.594 84.8125 140.656 84.1172 141.844 83.6328C143.047 83.1328 144.273 82.8828 145.523 82.8828C147.102 82.8828 148.547 83.1406 149.859 83.6562C151.172 84.1562 152.305 84.875 153.258 85.8125C154.211 86.7344 154.953 87.8672 155.484 89.2109C156.016 90.5547 156.281 92.0625 156.281 93.7344ZM186.703 101.258C187.438 101.102 188.141 100.68 188.812 99.9922C189.484 99.3047 190.07 98.3516 190.57 97.1328C191.07 95.9141 191.469 94.4375 191.766 92.7031C192.078 90.9531 192.234 88.9453 192.234 86.6797V82.1562H204.164V101.258H208.547V111.477H205.664V104H189.586V111.477H186.703V101.258ZM195.445 86.6797C195.445 88.4922 195.312 90.1953 195.047 91.7891C194.797 93.3672 194.461 94.7812 194.039 96.0312C193.633 97.2812 193.164 98.3594 192.633 99.2656C192.102 100.156 191.578 100.82 191.062 101.258H200.953V84.8984H195.445V86.6797ZM233.602 104H230.367V94.2031H217.266V104H214.055V82.1562H217.266V91.4609H230.367V82.1562H233.602V104ZM242.32 94.2031C242.555 96.5156 243.398 98.3594 244.852 99.7344C246.305 101.109 248.195 101.797 250.523 101.797C252.164 101.797 253.625 101.461 254.906 100.789C256.188 100.117 257.148 99.2812 257.789 98.2812L260.039 99.8281C258.945 101.359 257.641 102.531 256.125 103.344C254.609 104.141 252.742 104.539 250.523 104.539C248.836 104.539 247.289 104.258 245.883 103.695C244.477 103.133 243.258 102.352 242.227 101.352C241.211 100.336 240.422 99.1328 239.859 97.7422C239.297 96.3516 239.016 94.8047 239.016 93.1016C239.016 91.4453 239.266 89.9219 239.766 88.5312C240.281 87.125 241.016 85.9141 241.969 84.8984C242.938 83.8672 244.109 83.0703 245.484 82.5078C246.859 81.9297 248.398 81.6406 250.102 81.6406C251.961 81.6406 253.586 81.9531 254.977 82.5781C256.367 83.2031 257.523 84.0703 258.445 85.1797C259.383 86.2734 260.07 87.5859 260.508 89.1172C260.961 90.6484 261.188 92.3438 261.188 94.2031H242.32ZM257.789 91.4609C257.43 89.0703 256.562 87.2891 255.188 86.1172C253.812 84.9453 252.117 84.3594 250.102 84.3594C249.07 84.3594 248.117 84.5312 247.242 84.875C246.367 85.2031 245.594 85.6797 244.922 86.3047C244.25 86.9297 243.688 87.6875 243.234 88.5781C242.781 89.4531 242.492 90.4141 242.367 91.4609H257.789ZM266.461 82.1562H269.672V99.7812L281.484 82.1562H286.008V104H282.773V85.5781L270.445 104H266.461V82.1562ZM282.938 75.6406C281.109 77.4531 278.883 78.3594 276.258 78.3594C273.633 78.3594 271.406 77.4531 269.578 75.6406L271.406 73.8594C272.875 75.3281 274.492 76.0625 276.258 76.0625C278.023 76.0625 279.641 75.3281 281.109 73.8594L282.938 75.6406Z" fill="#FF1D1D"/>
    <path d="M629.25 91.5625C629.25 92.9062 628.977 94.1328 628.43 95.2422C627.883 96.3359 627.148 97.2734 626.227 98.0547C625.32 98.8359 624.266 99.4453 623.062 99.8828C621.875 100.32 620.625 100.539 619.312 100.539C617.828 100.539 616.445 100.336 615.164 99.9297C613.898 99.5234 612.773 98.9297 611.789 98.1484C610.82 97.3672 610.031 96.3828 609.422 95.1953C608.812 94.0078 608.445 92.6484 608.32 91.1172L611.438 90.6953C611.625 93.0547 612.445 94.8281 613.898 96.0156C615.352 97.2031 617.156 97.7969 619.312 97.7969C620.234 97.7969 621.102 97.6484 621.914 97.3516C622.727 97.0391 623.438 96.6016 624.047 96.0391C624.656 95.4766 625.133 94.8203 625.477 94.0703C625.836 93.3203 626.016 92.4844 626.016 91.5625C626.016 90.3125 625.812 89.2969 625.406 88.5156C625.016 87.7188 624.445 87.1016 623.695 86.6641C622.945 86.2109 622.016 85.9062 620.906 85.75C619.812 85.5938 618.539 85.5156 617.086 85.5156V82.7734C618.148 82.7734 619.172 82.6875 620.156 82.5156C621.156 82.3281 622.047 82.0312 622.828 81.625C623.609 81.2031 624.242 80.6484 624.727 79.9609C625.211 79.2734 625.453 78.3984 625.453 77.3359C625.453 75.6172 624.883 74.2422 623.742 73.2109C622.602 72.1641 621.125 71.6406 619.312 71.6406C617.031 71.6406 615.203 72.2422 613.828 73.4453C612.453 74.6328 611.766 76.5078 611.766 79.0703H608.742C608.742 77.4766 609 76.0469 609.516 74.7812C610.031 73.5156 610.75 72.4531 611.672 71.5938C612.594 70.7188 613.703 70.0547 615 69.6016C616.297 69.1328 617.734 68.8984 619.312 68.8984C620.625 68.8984 621.844 69.0938 622.969 69.4844C624.109 69.8594 625.102 70.4062 625.945 71.125C626.805 71.8438 627.469 72.7266 627.938 73.7734C628.422 74.8047 628.664 75.9922 628.664 77.3359C628.664 79.0703 628.141 80.5156 627.094 81.6719C626.062 82.8125 624.586 83.5312 622.664 83.8281C623.758 83.9844 624.711 84.2969 625.523 84.7656C626.336 85.2188 627.016 85.8047 627.562 86.5234C628.109 87.2266 628.523 88.0078 628.805 88.8672C629.102 89.7266 629.25 90.625 629.25 91.5625ZM655.734 90.1562H633.891V87.4141H655.734V90.1562ZM681.656 72.25C679.734 74.3281 678.195 76.375 677.039 78.3906C675.883 80.4062 674.992 82.5156 674.367 84.7188C673.742 86.9062 673.32 89.25 673.102 91.75C672.883 94.2344 672.758 96.9844 672.727 100H669.352C669.383 97.1562 669.531 94.4766 669.797 91.9609C670.078 89.4453 670.562 87.0469 671.25 84.7656C671.938 82.4688 672.875 80.2812 674.062 78.2031C675.25 76.125 676.75 74.1094 678.562 72.1562H663.984V78.1562H661.242V69.4141H681.656V72.25ZM712.5 97.2578C713.234 97.1016 713.938 96.6797 714.609 95.9922C715.281 95.3047 715.867 94.3516 716.367 93.1328C716.867 91.9141 717.266 90.4375 717.562 88.7031C717.875 86.9531 718.031 84.9453 718.031 82.6797V78.1562H729.961V97.2578H734.344V107.477H731.461V100H715.383V107.477H712.5V97.2578ZM721.242 82.6797C721.242 84.4922 721.109 86.1953 720.844 87.7891C720.594 89.3672 720.258 90.7812 719.836 92.0312C719.43 93.2812 718.961 94.3594 718.43 95.2656C717.898 96.1562 717.375 96.8203 716.859 97.2578H726.75V80.8984H721.242V82.6797ZM759.398 100H756.164V90.2031H743.062V100H739.852V78.1562H743.062V87.4609H756.164V78.1562H759.398V100ZM768.117 90.2031C768.352 92.5156 769.195 94.3594 770.648 95.7344C772.102 97.1094 773.992 97.7969 776.32 97.7969C777.961 97.7969 779.422 97.4609 780.703 96.7891C781.984 96.1172 782.945 95.2812 783.586 94.2812L785.836 95.8281C784.742 97.3594 783.438 98.5312 781.922 99.3438C780.406 100.141 778.539 100.539 776.32 100.539C774.633 100.539 773.086 100.258 771.68 99.6953C770.273 99.1328 769.055 98.3516 768.023 97.3516C767.008 96.3359 766.219 95.1328 765.656 93.7422C765.094 92.3516 764.812 90.8047 764.812 89.1016C764.812 87.4453 765.062 85.9219 765.562 84.5312C766.078 83.125 766.812 81.9141 767.766 80.8984C768.734 79.8672 769.906 79.0703 771.281 78.5078C772.656 77.9297 774.195 77.6406 775.898 77.6406C777.758 77.6406 779.383 77.9531 780.773 78.5781C782.164 79.2031 783.32 80.0703 784.242 81.1797C785.18 82.2734 785.867 83.5859 786.305 85.1172C786.758 86.6484 786.984 88.3438 786.984 90.2031H768.117ZM783.586 87.4609C783.227 85.0703 782.359 83.2891 780.984 82.1172C779.609 80.9453 777.914 80.3594 775.898 80.3594C774.867 80.3594 773.914 80.5312 773.039 80.875C772.164 81.2031 771.391 81.6797 770.719 82.3047C770.047 82.9297 769.484 83.6875 769.031 84.5781C768.578 85.4531 768.289 86.4141 768.164 87.4609H783.586ZM792.258 78.1562H795.469V95.7812L807.281 78.1562H811.805V100H808.57V81.5781L796.242 100H792.258V78.1562ZM808.734 71.6406C806.906 73.4531 804.68 74.3594 802.055 74.3594C799.43 74.3594 797.203 73.4531 795.375 71.6406L797.203 69.8594C798.672 71.3281 800.289 72.0625 802.055 72.0625C803.82 72.0625 805.438 71.3281 806.906 69.8594L808.734 71.6406Z" fill="#00FF11"/>
    <path d="M0 29.2578C0.890625 28.4922 1.67969 27.6719 2.36719 26.7969C3.05469 25.9062 3.63281 24.7266 4.10156 23.2578C4.57031 21.7891 4.92188 19.9219 5.15625 17.6562C5.40625 15.375 5.53125 12.4766 5.53125 8.96094V1.41406H17.4609V29.2578H21.8438V39.4766H18.9609V32H2.88281V39.4766H0V29.2578ZM8.74219 8.96094C8.74219 11.7109 8.64844 14.1406 8.46094 16.25C8.28906 18.3594 8.00781 20.2344 7.61719 21.875C7.24219 23.5 6.74219 24.9141 6.11719 26.1172C5.49219 27.3203 4.73438 28.3672 3.84375 29.2578H14.25V4.15625H8.74219V8.96094ZM48.0469 21.1016C48.0469 22.8047 47.7812 24.3516 47.25 25.7422C46.7188 27.1328 45.9688 28.3359 45 29.3516C44.0469 30.3516 42.8906 31.1328 41.5312 31.6953C40.1719 32.2578 38.6484 32.5391 36.9609 32.5391C35.8047 32.5391 34.6797 32.3281 33.5859 31.9062C32.5078 31.4844 31.5 30.8594 30.5625 30.0312V40.7422H27.3516V10.1562H30.5625V12.1719C32.5469 10.4844 34.6797 9.64062 36.9609 9.64062C38.6484 9.64062 40.1719 9.92188 41.5312 10.4844C42.8906 11.0312 44.0469 11.8203 45 12.8516C45.9688 13.8672 46.7188 15.0859 47.25 16.5078C47.7812 17.9141 48.0469 19.4453 48.0469 21.1016ZM44.8359 21.1016C44.8359 19.8828 44.6641 18.7422 44.3203 17.6797C43.9922 16.6016 43.4922 15.6719 42.8203 14.8906C42.1484 14.1094 41.3203 13.4922 40.3359 13.0391C39.3672 12.5859 38.2422 12.3594 36.9609 12.3594C35.7422 12.3594 34.6016 12.5859 33.5391 13.0391C32.4922 13.4922 31.5 14.2266 30.5625 15.2422V26.9609C31.5 27.9766 32.4922 28.7031 33.5391 29.1406C34.6016 29.5781 35.7422 29.7969 36.9609 29.7969C38.2422 29.7969 39.3672 29.5703 40.3359 29.1172C41.3203 28.6641 42.1484 28.0469 42.8203 27.2656C43.4922 26.4844 43.9922 25.5703 44.3203 24.5234C44.6641 23.4609 44.8359 22.3203 44.8359 21.1016ZM74.9297 10.1562L63.1172 37.5312C62.5078 39.0625 61.6484 40.0625 60.5391 40.5312C59.4297 41.0156 58.2031 41.2578 56.8594 41.2578C55.3594 41.2578 53.8594 40.9844 52.3594 40.4375L52.9922 37.6719C53.7266 37.9844 54.4453 38.2031 55.1484 38.3281C55.8516 38.4688 56.4219 38.5391 56.8594 38.5391C57.9219 38.5391 58.6484 38.2812 59.0391 37.7656C59.4453 37.25 59.7969 36.6406 60.0938 35.9375L61.4297 32.6328L51.6797 10.1562H55.4766L63.3516 29.2578L71.0859 10.1562H74.9297ZM79.7578 10.1562H100.453V12.8984H82.9688V32H79.7578V10.1562ZM105.961 10.1562H109.172V27.7812L120.984 10.1562H125.508V32H122.273V13.5781L109.945 32H105.961V10.1562ZM134.227 22.2031C134.461 24.5156 135.305 26.3594 136.758 27.7344C138.211 29.1094 140.102 29.7969 142.43 29.7969C144.07 29.7969 145.531 29.4609 146.812 28.7891C148.094 28.1172 149.055 27.2812 149.695 26.2812L151.945 27.8281C150.852 29.3594 149.547 30.5312 148.031 31.3438C146.516 32.1406 144.648 32.5391 142.43 32.5391C140.742 32.5391 139.195 32.2578 137.789 31.6953C136.383 31.1328 135.164 30.3516 134.133 29.3516C133.117 28.3359 132.328 27.1328 131.766 25.7422C131.203 24.3516 130.922 22.8047 130.922 21.1016C130.922 19.4453 131.172 17.9219 131.672 16.5312C132.188 15.125 132.922 13.9141 133.875 12.8984C134.844 11.8672 136.016 11.0703 137.391 10.5078C138.766 9.92969 140.305 9.64062 142.008 9.64062C143.867 9.64062 145.492 9.95312 146.883 10.5781C148.273 11.2031 149.43 12.0703 150.352 13.1797C151.289 14.2734 151.977 15.5859 152.414 17.1172C152.867 18.6484 153.094 20.3438 153.094 22.2031H134.227ZM149.695 19.4609C149.336 17.0703 148.469 15.2891 147.094 14.1172C145.719 12.9453 144.023 12.3594 142.008 12.3594C140.977 12.3594 140.023 12.5312 139.148 12.875C138.273 13.2031 137.5 13.6797 136.828 14.3047C136.156 14.9297 135.594 15.6875 135.141 16.5781C134.688 17.4531 134.398 18.4141 134.273 19.4609H149.695ZM204.445 27.875C203.523 29.3125 202.258 30.4531 200.648 31.2969C199.055 32.125 197.156 32.5391 194.953 32.5391C193.25 32.5391 191.688 32.2578 190.266 31.6953C188.844 31.1328 187.625 30.3516 186.609 29.3516C185.609 28.3359 184.828 27.1328 184.266 25.7422C183.703 24.3516 183.422 22.8047 183.422 21.1016C183.422 19.4453 183.68 17.9141 184.195 16.5078C184.711 15.0859 185.445 13.875 186.398 12.875C187.352 11.8594 188.516 11.0703 189.891 10.5078C191.281 9.92969 192.82 9.64062 194.508 9.64062C195.18 9.64062 195.867 9.71875 196.57 9.875C197.273 10.0312 197.938 10.2734 198.562 10.6016C199.188 10.9141 199.75 11.2969 200.25 11.75C200.75 12.1875 201.125 12.7109 201.375 13.3203V10.1562H204.258V18.8984H201.375C201.375 17.9297 201.195 17.0469 200.836 16.25C200.492 15.4531 200.016 14.7656 199.406 14.1875C198.797 13.6094 198.07 13.1641 197.227 12.8516C196.383 12.5234 195.477 12.3594 194.508 12.3594C193.195 12.3594 192.047 12.5859 191.062 13.0391C190.094 13.4922 189.281 14.1094 188.625 14.8906C187.969 15.6719 187.469 16.5938 187.125 17.6562C186.797 18.7031 186.633 19.8516 186.633 21.1016C186.633 22.3516 186.82 23.5078 187.195 24.5703C187.586 25.6172 188.141 26.5234 188.859 27.2891C189.594 28.0547 190.469 28.6641 191.484 29.1172C192.516 29.5703 193.672 29.7969 194.953 29.7969C196.578 29.7969 198.023 29.4844 199.289 28.8594C200.555 28.2344 201.523 27.3906 202.195 26.3281L204.445 27.875ZM231.469 20.4688H228.727V12.8984H222.164V29.2578H227.086V32H213.984V29.2578H218.93V12.8984H212.367V20.4688H209.625V10.1562H231.469V20.4688ZM258.352 10.1562L246.539 37.5312C245.93 39.0625 245.07 40.0625 243.961 40.5312C242.852 41.0156 241.625 41.2578 240.281 41.2578C238.781 41.2578 237.281 40.9844 235.781 40.4375L236.414 37.6719C237.148 37.9844 237.867 38.2031 238.57 38.3281C239.273 38.4688 239.844 38.5391 240.281 38.5391C241.344 38.5391 242.07 38.2812 242.461 37.7656C242.867 37.25 243.219 36.6406 243.516 35.9375L244.852 32.6328L235.102 10.1562H238.898L246.773 29.2578L254.508 10.1562H258.352ZM262.031 29.2578C262.766 29.1016 263.469 28.6797 264.141 27.9922C264.812 27.3047 265.398 26.3516 265.898 25.1328C266.398 23.9141 266.797 22.4375 267.094 20.7031C267.406 18.9531 267.562 16.9453 267.562 14.6797V10.1562H279.492V29.2578H283.875V39.4766H280.992V32H264.914V39.4766H262.031V29.2578ZM270.773 14.6797C270.773 16.4922 270.641 18.1953 270.375 19.7891C270.125 21.3672 269.789 22.7812 269.367 24.0312C268.961 25.2812 268.492 26.3594 267.961 27.2656C267.43 28.1562 266.906 28.8203 266.391 29.2578H276.281V12.8984H270.773V14.6797ZM289.383 10.1562H292.594V27.7812L304.406 10.1562H308.93V32H305.695V13.5781L293.367 32H289.383V10.1562ZM315.586 10.1562H318.797V27.7812L330.609 10.1562H335.133V32H331.898V13.5781L319.57 32H315.586V10.1562Z" fill="white"/>
    <path d="M615.664 16.7422C615.664 18.6953 615.477 20.5781 615.102 22.3906C614.742 24.1875 614.148 25.7969 613.32 27.2188C612.508 28.6406 611.445 29.8203 610.133 30.7578C608.82 31.6797 607.234 32.2344 605.375 32.4219C605.734 34.5156 606.453 35.9609 607.531 36.7578C608.625 37.5547 610.227 37.9531 612.336 37.9531C612.883 37.9531 613.344 37.9453 613.719 37.9297C614.109 37.9141 614.484 37.8906 614.844 37.8594V40.6016C614.391 40.6328 613.953 40.6562 613.531 40.6719C613.125 40.6875 612.727 40.6953 612.336 40.6953C609.148 40.6953 606.742 40.0156 605.117 38.6562C603.508 37.2969 602.523 35.2031 602.164 32.375C600.445 32.1562 598.953 31.6016 597.688 30.7109C596.422 29.8047 595.383 28.6562 594.57 27.2656C593.773 25.875 593.188 24.2812 592.812 22.4844C592.422 20.6719 592.227 18.7578 592.227 16.7422C592.227 14.6953 592.438 12.7188 592.859 10.8125C593.266 8.90625 593.938 7.21875 594.875 5.75C595.828 4.28125 597.047 3.10937 598.531 2.23438C600.031 1.34375 601.836 0.898438 603.945 0.898438C606.055 0.898438 607.852 1.34375 609.336 2.23438C610.836 3.10937 612.047 4.28125 612.969 5.75C613.891 7.21875 614.57 8.90625 615.008 10.8125C615.445 12.7188 615.664 14.6953 615.664 16.7422ZM612.43 16.7422C612.43 15.1953 612.297 13.6484 612.031 12.1016C611.766 10.5547 611.312 9.14844 610.672 7.88281C610.031 6.61719 609.156 5.59375 608.047 4.8125C606.938 4.03125 605.57 3.64062 603.945 3.64062C602.273 3.64062 600.891 4.03125 599.797 4.8125C598.719 5.59375 597.852 6.61719 597.195 7.88281C596.539 9.14844 596.078 10.5547 595.812 12.1016C595.562 13.6484 595.438 15.1953 595.438 16.7422C595.438 20.8047 596.172 24 597.641 26.3281C599.125 28.6406 601.227 29.7969 603.945 29.7969C606.633 29.7969 608.719 28.6406 610.203 26.3281C611.688 24 612.43 20.8047 612.43 16.7422ZM620.352 10.1562H623.562V23.6562C623.562 25.6094 623.984 27.125 624.828 28.2031C625.688 29.2656 627.062 29.7969 628.953 29.7969C630.141 29.7969 631.211 29.5234 632.164 28.9766C633.117 28.4297 633.93 27.7031 634.602 26.7969C635.273 25.875 635.781 24.8281 636.125 23.6562C636.484 22.4688 636.664 21.2344 636.664 19.9531V10.1562H639.898V32H636.664V26.5391C635.133 30.5391 632.383 32.5391 628.414 32.5391C623.039 32.5391 620.352 29.5781 620.352 23.6562V10.1562ZM658.508 5.79688H654.148V1.41406H658.508V5.79688ZM662.867 32H649.766V29.2578H654.711V12.8984H649.766V10.1562H657.945V29.2578H662.867V32ZM692.633 27.8281C691.711 29.2656 690.445 30.4141 688.836 31.2734C687.242 32.1172 685.344 32.5391 683.141 32.5391C681.438 32.5391 679.875 32.2578 678.453 31.6953C677.031 31.1328 675.812 30.3516 674.797 29.3516C673.797 28.3359 673.016 27.1328 672.453 25.7422C671.891 24.3516 671.609 22.8047 671.609 21.1016C671.609 19.4453 671.867 17.9141 672.383 16.5078C672.898 15.0859 673.633 13.875 674.586 12.875C675.539 11.8594 676.703 11.0703 678.078 10.5078C679.469 9.92969 681.008 9.64062 682.695 9.64062C683.367 9.64062 684.055 9.71875 684.758 9.875C685.461 10.0312 686.125 10.2734 686.75 10.6016C687.375 10.9141 687.938 11.2969 688.438 11.75C688.938 12.1875 689.312 12.7109 689.562 13.3203V10.1562H692.445V18.8984H689.562C689.562 17.9297 689.383 17.0469 689.023 16.25C688.68 15.4531 688.203 14.7656 687.594 14.1875C686.984 13.6094 686.258 13.1641 685.414 12.8516C684.57 12.5234 683.664 12.3594 682.695 12.3594C681.383 12.3594 680.234 12.5859 679.25 13.0391C678.281 13.4922 677.469 14.1094 676.812 14.8906C676.156 15.6719 675.656 16.5938 675.312 17.6562C674.984 18.7031 674.82 19.8516 674.82 21.1016C674.82 22.3516 675.008 23.5078 675.383 24.5703C675.773 25.6172 676.328 26.5234 677.047 27.2891C677.781 28.0547 678.656 28.6641 679.672 29.1172C680.703 29.5703 681.859 29.7969 683.141 29.7969C684.766 29.7969 686.211 29.4766 687.477 28.8359C688.742 28.1953 689.711 27.3438 690.383 26.2812L692.633 27.8281ZM719.609 32H715.039L706.109 22.2031L702.172 25.8125V32H698.961V1.41406H702.172V21.9219L714.617 10.1562H719.211L708.266 20.1875L719.609 32ZM745.812 23.2578C745.812 26.1797 744.867 28.3672 742.977 29.8203C741.086 31.2734 738.398 32 734.914 32H725.164V1.41406H734.375C735.656 1.41406 736.914 1.52344 738.148 1.74219C739.383 1.94531 740.484 2.33594 741.453 2.91406C742.438 3.49219 743.234 4.29688 743.844 5.32812C744.453 6.34375 744.758 7.67969 744.758 9.33594C744.758 12.5078 743.172 14.6719 740 15.8281C743.875 17.0156 745.812 19.4922 745.812 23.2578ZM741.547 9.33594C741.547 8.25781 741.32 7.375 740.867 6.6875C740.414 6 739.836 5.47656 739.133 5.11719C738.43 4.74219 737.656 4.49219 736.812 4.36719C735.969 4.22656 735.156 4.15625 734.375 4.15625H728.375V14.5391H734.375C735.25 14.5391 736.109 14.4766 736.953 14.3516C737.797 14.2109 738.555 13.9531 739.227 13.5781C739.898 13.1875 740.453 12.6562 740.891 11.9844C741.328 11.3125 741.547 10.4297 741.547 9.33594ZM742.602 23.2578C742.602 21.1484 741.914 19.6172 740.539 18.6641C739.18 17.6953 737.305 17.2109 734.914 17.2109H728.375V29.2578H734.914C737.305 29.2578 739.18 28.7578 740.539 27.7578C741.914 26.7422 742.602 25.2422 742.602 23.2578ZM772.625 21.1484C772.625 22.8516 772.352 24.3984 771.805 25.7891C771.273 27.1797 770.5 28.375 769.484 29.375C768.484 30.3594 767.281 31.1328 765.875 31.6953C764.469 32.2578 762.898 32.5391 761.164 32.5391C759.461 32.5391 757.906 32.2578 756.5 31.6953C755.094 31.1328 753.883 30.3594 752.867 29.375C751.867 28.375 751.094 27.1797 750.547 25.7891C750.016 24.3984 749.75 22.8516 749.75 21.1484C749.75 19.4922 750.016 17.9531 750.547 16.5312C751.094 15.0938 751.867 13.875 752.867 12.875C753.883 11.8594 755.094 11.0703 756.5 10.5078C757.906 9.92969 759.461 9.64062 761.164 9.64062C762.898 9.64062 764.469 9.92969 765.875 10.5078C767.281 11.0703 768.484 11.8594 769.484 12.875C770.5 13.875 771.273 15.0938 771.805 16.5312C772.352 17.9531 772.625 19.4922 772.625 21.1484ZM769.414 21.1484C769.414 19.8984 769.227 18.75 768.852 17.7031C768.492 16.6406 767.953 15.7109 767.234 14.9141C766.516 14.1172 765.641 13.4922 764.609 13.0391C763.594 12.5859 762.445 12.3594 761.164 12.3594C759.883 12.3594 758.727 12.5859 757.695 13.0391C756.68 13.4922 755.82 14.1172 755.117 14.9141C754.414 15.7109 753.875 16.6406 753.5 17.7031C753.141 18.75 752.961 19.8984 752.961 21.1484C752.961 22.3984 753.141 23.5547 753.5 24.6172C753.875 25.6641 754.414 26.5703 755.117 27.3359C755.82 28.1016 756.68 28.7031 757.695 29.1406C758.727 29.5781 759.883 29.7969 761.164 29.7969C762.445 29.7969 763.594 29.5781 764.609 29.1406C765.641 28.7031 766.516 28.1016 767.234 27.3359C767.953 26.5703 768.492 25.6641 768.852 24.6172C769.227 23.5547 769.414 22.3984 769.414 21.1484ZM798.5 25.0391C798.25 27.3359 797.344 29.1641 795.781 30.5234C794.234 31.8672 792.297 32.5391 789.969 32.5391C788.688 32.5391 787.516 32.3281 786.453 31.9062C785.391 31.4844 784.484 30.8984 783.734 30.1484C782.984 29.3984 782.398 28.5 781.977 27.4531C781.57 26.3906 781.367 25.2344 781.367 23.9844V12.8984H776.422V10.1562H781.367V1.41406H784.578V10.1562H793.883V12.8984H784.578V23.9844C784.578 24.7812 784.703 25.5312 784.953 26.2344C785.219 26.9375 785.578 27.5547 786.031 28.0859C786.5 28.6172 787.062 29.0391 787.719 29.3516C788.375 29.6484 789.125 29.7969 789.969 29.7969C791.562 29.7969 792.891 29.3047 793.953 28.3203C795.031 27.3203 795.648 26.0312 795.805 24.4531L798.5 25.0391ZM823.883 25.9531C823.883 27.2344 823.562 28.2969 822.922 29.1406C822.281 29.9844 821.453 30.6562 820.438 31.1562C819.438 31.6562 818.312 32.0078 817.062 32.2109C815.828 32.4297 814.617 32.5391 813.43 32.5391C811.445 32.5391 809.469 32.25 807.5 31.6719C805.531 31.0938 803.828 30.3359 802.391 29.3984L803.82 26.6328C805.43 27.6484 807.016 28.4297 808.578 28.9766C810.141 29.5234 811.758 29.7969 813.43 29.7969C818.258 29.7969 820.672 28.5469 820.672 26.0469C820.672 25.4375 820.469 24.9453 820.062 24.5703C819.672 24.1797 819.141 23.8672 818.469 23.6328C817.797 23.3828 817.023 23.1875 816.148 23.0469C815.289 22.9062 814.383 22.7734 813.43 22.6484C812.211 22.4766 811 22.2734 809.797 22.0391C808.594 21.8047 807.492 21.4531 806.492 20.9844C805.508 20.5156 804.711 19.8906 804.102 19.1094C803.508 18.3281 803.211 17.2969 803.211 16.0156C803.211 14.9219 803.484 13.9766 804.031 13.1797C804.594 12.3828 805.336 11.7188 806.258 11.1875C807.195 10.6562 808.289 10.2656 809.539 10.0156C810.789 9.76562 812.086 9.64062 813.43 9.64062C815.352 9.64062 817.07 9.86719 818.586 10.3203C820.102 10.7578 821.469 11.3906 822.688 12.2188L821.398 14.7266C820.148 13.8516 818.883 13.2422 817.602 12.8984C816.32 12.5391 814.93 12.3594 813.43 12.3594C812.758 12.3594 812.008 12.4219 811.18 12.5469C810.367 12.6562 809.609 12.8594 808.906 13.1562C808.203 13.4375 807.609 13.8125 807.125 14.2812C806.656 14.7344 806.422 15.3125 806.422 16.0156C806.422 16.625 806.617 17.1172 807.008 17.4922C807.414 17.8516 807.953 18.1562 808.625 18.4062C809.297 18.6406 810.062 18.8281 810.922 18.9688C811.797 19.1094 812.711 19.2422 813.664 19.3672C814.852 19.5391 816.047 19.7422 817.25 19.9766C818.469 20.2109 819.57 20.5547 820.555 21.0078C821.555 21.4609 822.359 22.0781 822.969 22.8594C823.578 23.6406 823.883 24.6719 823.883 25.9531Z" fill="white"/>
    <path d="M410.375 86.75L436.625 60.5L410.375 34.25" stroke="white" stroke-width="4" stroke-linecap="round" stroke-linejoin="round"/>
    <path d="M463.375 86.75L489.625 60.5L463.375 34.25" stroke="white" stroke-width="4" stroke-linecap="round" stroke-linejoin="round"/>
</svg>
