<svg width="92" height="92" viewBox="0 0 92 92" fill="none" xmlns="http://www.w3.org/2000/svg">
    <path d="M45.9998 46.0001C39.7665 46.0001 34.4304 43.7806 29.9915 39.3418C25.5526 34.9029 23.3332 29.5667 23.3332 23.3334C23.3332 17.1001 25.5526 11.764 29.9915 7.32508C34.4304 2.88619 39.7665 0.666748 45.9998 0.666748C52.2332 0.666748 57.5693 2.88619 62.0082 7.32508C66.4471 11.764 68.6665 17.1001 68.6665 23.3334C68.6665 29.5667 66.4471 34.9029 62.0082 39.3418C57.5693 43.7806 52.2332 46.0001 45.9998 46.0001ZM0.666504 91.3334V75.4668C0.666504 72.2556 1.49289 69.3043 3.14567 66.6126C4.79845 63.9209 6.99428 61.8668 9.73317 60.4501C15.5887 57.5223 21.5387 55.3265 27.5832 53.8626C33.6276 52.3987 39.7665 51.6668 45.9998 51.6668C52.2332 51.6668 58.3721 52.3987 64.4165 53.8626C70.461 55.3265 76.411 57.5223 82.2665 60.4501C85.0054 61.8668 87.2012 63.9209 88.854 66.6126C90.5068 69.3043 91.3332 72.2556 91.3332 75.4668V91.3334H0.666504ZM11.9998 80.0001H79.9998V75.4668C79.9998 74.4279 79.7401 73.4834 79.2207 72.6334C78.7012 71.7834 78.0165 71.1223 77.1665 70.6501C72.0665 68.1001 66.9193 66.1876 61.7248 64.9126C56.5304 63.6376 51.2887 63.0001 45.9998 63.0001C40.711 63.0001 35.4693 63.6376 30.2748 64.9126C25.0804 66.1876 19.9332 68.1001 14.8332 70.6501C13.9832 71.1223 13.2984 71.7834 12.779 72.6334C12.2596 73.4834 11.9998 74.4279 11.9998 75.4668V80.0001ZM45.9998 34.6667C49.1165 34.6667 51.7846 33.557 54.004 31.3376C56.2235 29.1181 57.3332 26.4501 57.3332 23.3334C57.3332 20.2167 56.2235 17.5487 54.004 15.3292C51.7846 13.1098 49.1165 12.0001 45.9998 12.0001C42.8832 12.0001 40.2151 13.1098 37.9957 15.3292C35.7762 17.5487 34.6665 20.2167 34.6665 23.3334C34.6665 26.4501 35.7762 29.1181 37.9957 31.3376C40.2151 33.557 42.8832 34.6667 45.9998 34.6667Z" fill="white"/>
</svg>
